<mxfile host="app.diagrams.net" modified="2024-01-03T03:24:47.512Z" agent="Mozilla/5.0 (Windows NT 10.0; Win64; x64) AppleWebKit/537.36 (KHTML, like Gecko) Chrome/120.0.0.0 Safari/537.36 Edg/120.0.0.0" version="22.1.16" etag="i3td0qoxv6Z60HtlzJLa" type="github">
  <diagram name="Page-1" id="dSUBzKY2Q5ndGkYo57T5">
    <mxGraphModel>
      <root>
        <mxCell id="0" />
        <mxCell id="1" parent="0" />
        <mxCell id="2" value="AWS" style="whiteSpace=wrap;strokeWidth=2;verticalAlign=top;" vertex="1" parent="1">
          <mxGeometry x="445" width="1373" height="284" as="geometry" />
        </mxCell>
        <mxCell id="3" value="Create EC2 instance using Terraform" style="whiteSpace=wrap;strokeWidth=2;" vertex="1" parent="1">
          <mxGeometry x="470" y="126" width="276" height="33" as="geometry" />
        </mxCell>
        <mxCell id="4" value="Connected to EC2 using SSH" style="ellipse;aspect=fixed;strokeWidth=2;whiteSpace=wrap;" vertex="1" parent="1">
          <mxGeometry x="795" y="35" width="214" height="214" as="geometry" />
        </mxCell>
        <mxCell id="5" value="Install Jenkins on EC2" style="whiteSpace=wrap;strokeWidth=2;" vertex="1" parent="1">
          <mxGeometry x="1060" y="126" width="170" height="33" as="geometry" />
        </mxCell>
        <mxCell id="6" value="Build Docker images from Jenkins" style="shape=cylinder3;boundedLbl=1;backgroundOutline=1;size=10;strokeWidth=2;whiteSpace=wrap;" vertex="1" parent="1">
          <mxGeometry x="1280" y="100" width="256" height="84" as="geometry" />
        </mxCell>
        <mxCell id="7" value="Publish to Docker Hub" style="rhombus;strokeWidth=2;whiteSpace=wrap;" vertex="1" parent="1">
          <mxGeometry x="1586" y="39" width="206" height="206" as="geometry" />
        </mxCell>
        <mxCell id="8" value="Local Machine" style="whiteSpace=wrap;strokeWidth=2;verticalAlign=top;" vertex="1" parent="1">
          <mxGeometry y="69" width="395" height="146" as="geometry" />
        </mxCell>
        <mxCell id="9" value="Developer works" style="rounded=1;absoluteArcSize=1;arcSize=14;whiteSpace=wrap;strokeWidth=2;" vertex="1" parent="1">
          <mxGeometry x="25" y="126" width="133" height="33" as="geometry" />
        </mxCell>
        <mxCell id="10" value="Push code to GitHub" style="shape=cylinder3;boundedLbl=1;backgroundOutline=1;size=10;strokeWidth=2;whiteSpace=wrap;" vertex="1" parent="1">
          <mxGeometry x="208" y="104" width="161" height="76" as="geometry" />
        </mxCell>
        <mxCell id="11" value="" style="curved=1;startArrow=none;endArrow=block;exitX=1.0026316248384632;exitY=0.4914772727272727;entryX=0.002173950953513199;entryY=0.5028782894736842;" edge="1" parent="1" source="9" target="10">
          <mxGeometry relative="1" as="geometry">
            <Array as="points" />
          </mxGeometry>
        </mxCell>
        <mxCell id="12" value="" style="curved=1;startArrow=none;endArrow=block;exitX=1.003882082352727;exitY=0.5028782894736842;entryX=-0.0013586403667062953;entryY=0.4914772727272727;" edge="1" parent="1" source="10" target="3">
          <mxGeometry relative="1" as="geometry">
            <Array as="points" />
          </mxGeometry>
        </mxCell>
        <mxCell id="13" value="" style="curved=1;startArrow=none;endArrow=block;exitX=0.9981432375700577;exitY=0.4914772727272727;entryX=0.002278194249233353;entryY=0.5010221962616822;" edge="1" parent="1" source="3" target="4">
          <mxGeometry relative="1" as="geometry">
            <Array as="points" />
          </mxGeometry>
        </mxCell>
        <mxCell id="14" value="" style="curved=1;startArrow=none;endArrow=block;exitX=1.0043225867725978;exitY=0.5010221962616822;entryX=-0.00044097900390625;entryY=0.4914772727272727;" edge="1" parent="1" source="4" target="5">
          <mxGeometry relative="1" as="geometry">
            <Array as="points" />
          </mxGeometry>
        </mxCell>
        <mxCell id="15" value="" style="curved=1;startArrow=none;endArrow=block;exitX=1.000294315113741;exitY=0.4914772727272727;entryX=0.00019544363021850586;entryY=0.5026041666666666;" edge="1" parent="1" source="5" target="6">
          <mxGeometry relative="1" as="geometry">
            <Array as="points" />
          </mxGeometry>
        </mxCell>
        <mxCell id="16" value="" style="curved=1;startArrow=none;endArrow=block;exitX=1.0003907084465027;exitY=0.5026041666666666;entryX=0.00048554059371207523;entryY=0.5010618932038835;" edge="1" parent="1" source="6" target="7">
          <mxGeometry relative="1" as="geometry">
            <Array as="points" />
          </mxGeometry>
        </mxCell>
      </root>
    </mxGraphModel>
  </diagram>
</mxfile>
